#N canvas 332 424 550 443 10;
#X msg 173 64 debug;
#X obj 138 11 adc~;
#X obj 181 356 dac~;
#X floatatom 244 74 5 0 0 0 - - -;
#X obj 179 18 hsl 256 15 0 256 0 0 empty empty empty -2 -6 0 8 -262144
-1 -1 3600 1;
#X obj 167 182 tgl 15 0 empty empty empty 0 -6 0 8 -262144 -1 -1 1
1;
#X obj 267 185 tgl 15 0 empty empty empty 0 -6 0 8 -262144 -1 -1 1
1;
#X obj 179 293 *~;
#X obj 203 293 *~;
#X obj 199 219 tgl 15 0 empty empty empty 0 -6 0 8 -262144 -1 -1 0
1;
#X text 265 161 play steady states components;
#X text 8 160 play transients;
#X text 185 204 stereo;
#X floatatom 10 226 5 0 0 0 - - -;
#X obj 13 182 hsl 128 15 0 127 0 0 empty empty empty -2 -6 0 8 -262144
-1 -1 2300 1;
#X floatatom 285 225 5 0 0 0 - - -;
#X obj 288 185 hsl 128 15 0 127 0 0 empty empty empty -2 -6 0 8 -262144
-1 -1 3900 1;
#X text 236 -1 separation threshold;
#X obj 144 96 aubiotss~ 0.015;
#X text 265 99 transient and steady state separation;
#X obj 244 239 *~ 1;
#X obj 244 267 *~ 1;
#X obj 144 240 *~ 1;
#X obj 144 265 *~ 1;
#X obj 285 204 / 68;
#X obj 10 203 / 68;
#X obj 244 51 / 256;
#X connect 0 0 18 0;
#X connect 1 0 18 0;
#X connect 1 1 18 0;
#X connect 3 0 18 1;
#X connect 4 0 26 0;
#X connect 5 0 23 1;
#X connect 6 0 21 1;
#X connect 7 0 2 1;
#X connect 8 0 2 0;
#X connect 9 0 7 0;
#X connect 9 0 8 1;
#X connect 13 0 22 1;
#X connect 14 0 25 0;
#X connect 15 0 20 1;
#X connect 16 0 24 0;
#X connect 18 0 22 0;
#X connect 18 1 20 0;
#X connect 20 0 21 0;
#X connect 21 0 2 1;
#X connect 21 0 8 0;
#X connect 22 0 23 0;
#X connect 23 0 2 0;
#X connect 23 0 7 0;
#X connect 24 0 15 0;
#X connect 25 0 13 0;
#X connect 26 0 3 0;
